<?xml version="1.0" encoding="UTF-8" standalone="no"?>
<svg width="259px" height="79px" viewBox="0 0 259 79" version="1.1" xmlns="http://www.w3.org/2000/svg" xmlns:xlink="http://www.w3.org/1999/xlink">
    <!-- Generator: Sketch 3.6.1 (26313) - http://www.bohemiancoding.com/sketch -->
    <title>launch_icon</title>
    <desc>Created with Sketch.</desc>
    <defs>
        <path d="M53.2126329,18.7783171 C48.602654,27.1878894 39.7813951,32.5249129 30.0178,32.5249129 C20.2542048,32.5249129 11.4329459,27.1878894 6.82296701,18.7783171 C5.86611768,17.0328225 3.67543505,16.3934991 1.92994039,17.3503484 C0.184445724,18.3071977 -0.454877641,20.4978804 0.501971682,22.243375 C6.36504592,32.9388571 17.5952769,39.7333529 30.0178,39.7333529 C42.440323,39.7333529 53.670554,32.9388571 59.5336282,22.243375 C60.4904776,20.4978804 59.8511542,18.3071977 58.1056595,17.3503484 C56.3601649,16.3934991 54.1694822,17.0328225 53.2126329,18.7783171 Z M43.3082148,12.1003244 C46.6258077,12.1003244 49.3152482,9.4108839 49.3152482,6.09329096 C49.3152482,2.77569803 46.6258077,0.0862575696 43.3082148,0.0862575696 C39.9906219,0.0862575696 37.3011814,2.77569803 37.3011814,6.09329096 C37.3011814,9.4108839 39.9906219,12.1003244 43.3082148,12.1003244 Z M16.8772679,12.1003244 C20.1948608,12.1003244 22.8843012,9.4108839 22.8843012,6.09329096 C22.8843012,2.77569803 20.1948608,0.0862575696 16.8772679,0.0862575696 C13.5596749,0.0862575696 10.8702345,2.77569803 10.8702345,6.09329096 C10.8702345,9.4108839 13.5596749,12.1003244 16.8772679,12.1003244 Z" id="path-1"></path>
        <path d="M0.488525391,0.936035156 L48.923584,0.936035156 L48.923584,8.32373047 L28.7111816,8.32373047 L28.7111816,59 L20.3688965,59 L20.3688965,8.32373047 L0.488525391,8.32373047 L0.488525391,0.936035156 Z M60.9863697,20.7390293 C66.8042179,20.7390293 71.6385002,22.6159498 75.4893617,26.3698471 C79.3402232,30.1237444 81.265625,34.8402863 81.265625,40.5196144 C81.265625,46.0327182 79.3125195,50.610742 75.40625,54.2538231 C71.4999805,57.8969043 66.5825873,59.7184176 60.6539229,59.7184176 C54.9191868,59.7184176 50.1264599,57.8692007 46.2755984,54.1707114 C42.424737,50.4722222 40.4993351,45.852643 40.4993351,40.3118351 C40.4993351,34.7156192 42.4455147,30.0544845 46.3379322,26.3282912 C50.2303497,22.6020979 55.1131134,20.7390293 60.9863697,20.7390293 L60.9863697,20.7390293 Z M60.5708112,27.5541888 C56.941582,27.5541888 53.9634425,28.7454446 51.6363032,31.127992 C49.3091639,33.5105394 48.1456117,36.5440862 48.1456117,40.2287234 C48.1456117,43.8856566 49.3368675,46.870722 51.7194149,49.1840093 C54.1019623,51.4972966 57.1632127,52.6539229 60.903258,52.6539229 C64.6155992,52.6539229 67.6560719,51.4834448 70.0247673,49.1424535 C72.3934626,46.8014621 73.5777926,43.8025449 73.5777926,40.1456117 C73.5777926,36.5163826 72.3449813,33.5105394 69.8793218,31.127992 C67.4136623,28.7454446 64.3108565,27.5541888 60.5708112,27.5541888 L60.5708112,27.5541888 Z M115.175199,1 L122.77992,1 L122.77992,59.0535239 L106.614694,59.0535239 C100.96307,59.0535239 96.4543054,57.2666402 93.0882646,53.6928191 C89.7222239,50.1189981 88.0392287,45.3262712 88.0392287,39.3144947 C88.0392287,33.6905747 89.8053347,29.0640696 93.3375997,25.4348404 C96.8698647,21.8056113 101.378629,19.9910239 106.864029,19.9910239 C109.412801,19.9910239 112.183163,20.5312446 115.175199,21.6117021 L115.175199,1 Z M115.175199,52.5708112 L115.175199,28.34375 C112.820356,27.1524763 110.437844,26.5568484 108.027593,26.5568484 C104.259844,26.5568484 101.260926,27.7896597 99.0307513,30.2553191 C96.8005762,32.7209786 95.6855053,36.0454135 95.6855053,40.2287234 C95.6855053,44.162697 96.6551321,47.1962438 98.5944149,49.3294548 C99.7579845,50.6038406 100.990796,51.4626529 102.292886,51.9059176 C103.594975,52.3491822 105.935932,52.5708112 109.315824,52.5708112 L115.175199,52.5708112 Z M157.063497,36.0731383 L157.063497,52.3214761 C157.063497,53.6235659 157.506755,54.2746011 158.393285,54.2746011 C159.307518,54.2746011 160.734254,53.5958623 162.673537,52.2383644 L162.673537,56.8510638 C160.955887,57.9592254 159.577632,58.7141491 158.53873,59.1158577 C157.499829,59.5175663 156.412461,59.7184176 155.276596,59.7184176 C152.035223,59.7184176 150.123673,58.4440509 149.541888,55.8952793 C146.32822,58.3886428 142.906822,59.6353059 139.277593,59.6353059 C136.618005,59.6353059 134.401715,58.7557158 132.628657,56.9965093 C130.855598,55.2373028 129.969082,53.0279388 129.969082,50.3683511 C129.969082,47.9580997 130.834821,45.8041429 132.566323,43.9064162 C134.297826,42.0086895 136.756522,40.505768 139.942487,39.3976064 L149.625,36.0731383 L149.625,34.0369016 C149.625,29.4380311 147.325599,27.1386303 142.726729,27.1386303 C138.598827,27.1386303 134.581801,29.2718093 130.675532,33.5382314 L130.675532,25.268617 C133.61216,21.8056121 137.836963,20.0741356 143.350066,20.0741356 C147.477968,20.0741356 150.788551,21.154577 153.281915,23.315492 C154.113036,24.008093 154.861034,24.9292385 155.525931,26.0789561 C156.190828,27.2286737 156.613308,28.3783741 156.793384,29.5280918 C156.973461,30.6778094 157.063497,32.8594697 157.063497,36.0731383 L157.063497,36.0731383 Z M149.625,51.490359 L149.625,40.1456117 L144.555186,42.0987367 C141.978711,43.1237862 140.157197,44.1557461 139.090592,45.1946476 C138.023986,46.2335491 137.490691,47.5286935 137.490691,49.0801197 C137.490691,50.6592499 137.996283,51.9474684 139.00748,52.9448138 C140.018677,53.9421592 141.327674,54.4408245 142.934508,54.4408245 C145.344759,54.4408245 147.574901,53.4573458 149.625,51.490359 L149.625,51.490359 Z M189.352394,20.822141 L197.871343,20.822141 L170.818484,78.5432181 L162.382646,78.5432181 L175.389628,50.8670213 L160.595745,20.822141 L169.197806,20.822141 L179.503657,42.3896277 L189.352394,20.822141 Z" id="path-3"></path>
    </defs>
    <g id="LaunchScreens" stroke="none" stroke-width="1" fill="none" fill-rule="evenodd">
        <g id="iPhone-6-Plus" transform="translate(-73.000000, -328.000000)">
            <g id="launch_icon" transform="translate(73.000000, 328.000000)">
                <g id="icon" transform="translate(199.000000, 20.000000)">
                    <mask id="mask-2" fill="white">
                        <use xlink:href="#path-1"></use>
                    </mask>
                    <use id="Mask" fill="#FFFFFF" xlink:href="#path-1"></use>
                    <rect id="Rectangle-1-Copy-4" fill="#34AADC" mask="url(#mask-2)" x="-190" y="32" width="250" height="27"></rect>
                    <rect id="Rectangle-1-Copy-3" fill="#48D178" mask="url(#mask-2)" x="-190" y="24" width="250" height="8"></rect>
                    <rect id="Rectangle-1-Copy-2" fill="#FFCC00" mask="url(#mask-2)" x="-190" y="16" width="250" height="8"></rect>
                    <rect id="Rectangle-1-Copy" fill="#FF9500" mask="url(#mask-2)" x="-190" y="8" width="250" height="8"></rect>
                    <rect id="Rectangle-1" fill="#FF3830" mask="url(#mask-2)" x="-190" y="-19" width="250" height="27"></rect>
                </g>
                <g id="Text">
                    <mask id="mask-4" fill="white">
                        <use xlink:href="#path-3"></use>
                    </mask>
                    <use id="Mask" fill="#FFFFFF" xlink:href="#path-3"></use>
                    <rect id="Rectangle-1-Copy-4" fill="#34AADC" mask="url(#mask-4)" x="0.8828125" y="52" width="258.117188" height="27"></rect>
                    <rect id="Rectangle-1-Copy-3" fill="#48D178" mask="url(#mask-4)" x="0.8828125" y="44" width="258.117188" height="8"></rect>
                    <rect id="Rectangle-1-Copy-2" fill="#FFCC00" mask="url(#mask-4)" x="0.8828125" y="36" width="258.117188" height="8"></rect>
                    <rect id="Rectangle-1-Copy" fill="#FF9500" mask="url(#mask-4)" x="0.8828125" y="28" width="258.117188" height="8"></rect>
                    <rect id="Rectangle-1" fill="#FF3830" mask="url(#mask-4)" x="0.8828125" y="1" width="258.117188" height="27"></rect>
                </g>
            </g>
        </g>
    </g>
</svg>